<svg xmlns="http://www.w3.org/2000/svg" width="900" height="620" viewBox="0 0 900 620"><rect width="900" height="620" fill="#f3e6c8"/><ellipse cx="450" cy="330" rx="260" ry="120" fill="#4a3421" opacity=".12"/><g fill="#56763e"><ellipse cx="200" cy="200" rx="24" ry="80" transform="rotate(-30 200 200)"/><ellipse cx="700" cy="200" rx="24" ry="80" transform="rotate(30 700 200)"/><ellipse cx="250" cy="480" rx="24" ry="80" transform="rotate(-40 250 480)"/><ellipse cx="650" cy="480" rx="24" ry="80" transform="rotate(40 650 480)"/></g><g transform="translate(450,300)"><g fill="#e9a91f"><ellipse cx="0" cy="-120" rx="58" ry="85"/><ellipse cx="0" cy="-120" rx="58" ry="85" transform="rotate(72)"/><ellipse cx="0" cy="-120" rx="58" ry="85" transform="rotate(144)"/><ellipse cx="0" cy="-120" rx="58" ry="85" transform="rotate(216)"/><ellipse cx="0" cy="-120" rx="58" ry="85" transform="rotate(288)"/></g><circle r="105" fill="#f7cf5a"/><circle r="58" fill="#f7cf5a"/><circle r="18" fill="#8a5a0c"/></g><g fill="#fff" opacity=".85"><circle cx="380" cy="230" r="6"/><circle cx="520" cy="260" r="6"/><circle cx="470" cy="380" r="6"/></g></svg>
