<svg xmlns="http://www.w3.org/2000/svg" width="900" height="1200" viewBox="0 0 900 1200"><rect width="900" height="1200" fill="#f1e5cb"/><g transform="translate(400,520)"><g fill="#f2b705"><polygon points="0,-110 20,-50 -20,-50"/><polygon points="0,-110 20,-50 -20,-50" transform="rotate(45)"/><polygon points="0,-110 20,-50 -20,-50" transform="rotate(90)"/><polygon points="0,-110 20,-50 -20,-50" transform="rotate(135)"/><polygon points="0,-110 20,-50 -20,-50" transform="rotate(180)"/><polygon points="0,-110 20,-50 -20,-50" transform="rotate(225)"/><polygon points="0,-110 20,-50 -20,-50" transform="rotate(270)"/><polygon points="0,-110 20,-50 -20,-50" transform="rotate(315)"/></g><circle r="44" fill="#462c0c"/></g><g stroke="#5f7a44" stroke-width="8"><line x1="370" y1="620" x2="360" y2="900"/><line x1="400" y1="620" x2="400" y2="900"/><line x1="430" y1="620" x2="440" y2="900"/></g><rect x="540" y="730" width="320" height="300" rx="10" fill="#fdfaf2" stroke="#b98a1f" stroke-width="4"/><circle cx="700" cy="950" r="28" fill="#a57614"/></svg>
